<svg id="Grupo_704" data-name="Grupo 704" xmlns="http://www.w3.org/2000/svg" width="134" height="33.73" viewBox="0 0 134 33.73">
  <g id="Grupo_6" data-name="Grupo 6">
    <path id="Trazado_55" data-name="Trazado 55" d="M844.013,864.654c.061-.147.126-.293.19-.438q.24-.541.513-1.063c.068-.132.134-.264.206-.393.254-.458.522-.905.813-1.338.035-.053.075-.1.111-.154q.393-.57.828-1.107c.1-.124.2-.246.308-.367q.378-.445.785-.863c.1-.1.2-.212.3-.314.37-.364.751-.714,1.15-1.045.06-.05.125-.095.186-.145q.52-.42,1.071-.8c.133-.092.268-.18.4-.269q.492-.322,1.005-.612c.125-.071.248-.145.375-.213.461-.246.931-.475,1.414-.682.083-.035.168-.064.252-.1q.614-.252,1.249-.458c.157-.051.316-.1.474-.146q.581-.171,1.179-.3c.139-.03.276-.066.417-.094.528-.1,1.063-.188,1.607-.245.1-.011.206-.014.308-.023.324-.029.648-.059.976-.07a16.9,16.9,0,0,0-16.247-16.257v27.776c.037-.094.082-.184.12-.278" transform="translate(-826.408 -837.156)" fill="#1579ff"/>
    <path id="Trazado_56" data-name="Trazado 56" d="M787.774,853.373c.2-.007.393-.015.587-.03.255-.018.509-.036.761-.065.3-.036.6-.086.9-.137.245-.042.491-.081.732-.134.3-.065.585-.145.874-.226.234-.065.469-.124.7-.2.287-.093.567-.2.847-.311.222-.085.447-.164.664-.259.279-.121.548-.259.818-.394.206-.1.417-.2.618-.311.272-.15.533-.319.8-.484.187-.117.38-.226.562-.35.273-.186.531-.391.791-.592.159-.122.324-.235.478-.362.344-.285.67-.59.991-.9.118-.114.234-.231.349-.349.307-.316.608-.64.89-.979.133-.161.251-.333.378-.5.2-.254.395-.5.576-.769.131-.192.245-.394.369-.591.158-.253.321-.5.465-.765.117-.211.217-.432.325-.649.13-.26.263-.519.38-.787.1-.228.182-.463.271-.7.1-.269.209-.537.3-.812.078-.241.141-.488.209-.734.076-.278.154-.555.216-.839.056-.252.1-.509.141-.765.049-.287.1-.573.132-.864.031-.26.048-.525.067-.789.013-.189.021-.38.029-.57a16.9,16.9,0,0,0-16.211,16.212" transform="translate(-787.771 -837.159)" fill="#fff"/>
    <path id="Trazado_57" data-name="Trazado 57" d="M860.207,893.385c-.2.008-.393.016-.588.03-.254.019-.509.036-.76.065-.3.036-.6.086-.9.138-.244.042-.489.081-.73.134-.3.065-.588.146-.88.227-.232.064-.466.124-.693.2-.29.094-.573.2-.856.314-.219.084-.44.162-.654.255-.284.123-.558.264-.834.4-.2.1-.407.194-.6.3-.281.155-.549.329-.82.5-.179.113-.364.216-.538.335-.287.2-.558.41-.832.623-.145.112-.3.215-.437.331-.382.316-.747.651-1.1,1l-.138.139c-.348.352-.682.717-1,1.1-.122.146-.229.3-.345.455-.207.267-.416.532-.607.812-.126.185-.237.381-.355.571-.163.26-.329.516-.478.785-.115.207-.214.425-.319.637-.132.264-.267.526-.385.8-.1.226-.181.459-.269.69-.1.271-.21.54-.3.817-.077.24-.14.486-.207.73-.077.279-.155.558-.217.843-.055.251-.1.507-.14.762-.049.287-.1.575-.133.866-.031.26-.048.525-.067.789-.013.189-.021.379-.029.569a16.9,16.9,0,0,0,16.212-16.212" transform="translate(-826.479 -875.869)" fill="#fff"/>
    <path id="Trazado_58" data-name="Trazado 58" d="M803.7,856.98q-.242.546-.518,1.073c-.067.129-.131.259-.2.386-.255.459-.524.909-.816,1.342-.032.047-.068.092-.1.139-.265.386-.546.759-.84,1.123-.1.121-.2.24-.3.359q-.383.45-.795.875c-.1.1-.194.205-.294.3-.371.366-.755.718-1.156,1.051-.055.046-.114.086-.17.131q-.528.428-1.088.814c-.13.09-.262.177-.394.263-.332.218-.671.423-1.017.619-.122.069-.241.141-.365.207-.462.247-.934.478-1.42.685-.08.034-.162.062-.243.094q-.618.254-1.259.462c-.155.051-.312.1-.469.144-.389.115-.784.216-1.184.305-.138.031-.274.066-.414.094-.529.1-1.064.188-1.608.246-.1.011-.205.013-.307.022-.324.029-.648.059-.977.071a16.877,16.877,0,0,0,16.246,16.257V856.269c-.037.1-.083.186-.122.281-.06.145-.124.287-.187.43" transform="translate(-787.764 -850.315)" fill="#d8dfe1"/>
    <path id="Trazado_59" data-name="Trazado 59" d="M924.734,860.646l7.189,15.262,7.336-15.262h4.313l-9.18,19.1h-4.9l-9.032-19.1Z" transform="translate(-879.122 -853.328)" fill="#fff"/>
    <rect id="Rectángulo_36" data-name="Rectángulo 36" width="3.834" height="19.096" transform="translate(67.807 7.317)" fill="#fff"/>
    <path id="Trazado_60" data-name="Trazado 60" d="M1045.736,867.563h8.589V875.6c-.811.848-3.576,3.428-9.511,3.428-7.078,0-11.355-4.9-11.355-10.285,0-4.829,3.76-9.99,11.391-9.99a17.033,17.033,0,0,1,9.105,2.433l-2.249,3.8a11.766,11.766,0,0,0-7-2.4c-4.5,0-7.41,2.765-7.41,6.156,0,3.613,2.544,6.451,7.521,6.451a10.774,10.774,0,0,0,5.677-1.77V871.1h-4.755Z" transform="translate(-956.923 -852.025)" fill="#fff"/>
    <rect id="Rectángulo_37" data-name="Rectángulo 37" width="3.834" height="19.096" transform="translate(103.111 7.317)" fill="#fff"/>
    <path id="Trazado_61" data-name="Trazado 61" d="M1151.087,860.646h5.087l9.364,19.1h-4.35l-1.917-4.018H1148.1l-1.917,4.018h-4.35Zm-1.105,11.244h7.373l-3.687-7.52Z" transform="translate(-1031.538 -853.328)" fill="#fff"/>
  </g>
</svg>
