<svg xmlns="http://www.w3.org/2000/svg" width="178" height="44.806" viewBox="0 0 178 44.806">
  <g id="Grupo_2" data-name="Grupo 2" transform="translate(-1694.911 4077.842)">
    <path id="Trazado_48" data-name="Trazado 48" d="M1469.2,257.684c.081-.2.167-.389.253-.583q.319-.719.682-1.412c.091-.174.178-.35.273-.522.338-.607.694-1.2,1.08-1.776.047-.07.1-.135.148-.2q.522-.757,1.1-1.47c.134-.165.272-.326.409-.488q.5-.591,1.043-1.147c.134-.139.265-.281.4-.417.491-.483,1-.949,1.528-1.389.08-.067.166-.126.248-.192q.69-.559,1.422-1.065c.177-.122.356-.24.536-.357q.654-.428,1.336-.812c.167-.094.33-.193.5-.283.612-.327,1.237-.632,1.879-.907.11-.047.224-.085.334-.13q.816-.334,1.66-.609c.209-.068.419-.131.63-.193q.772-.228,1.566-.4c.185-.041.367-.089.554-.125.7-.139,1.413-.251,2.135-.327.135-.014.274-.017.41-.03.43-.038.86-.079,1.3-.094a22.448,22.448,0,0,0-21.582-21.595v36.9c.049-.125.109-.245.16-.369" transform="translate(249.098 -4298.998)" fill="#1579ff"/>
    <path id="Trazado_49" data-name="Trazado 49" d="M1412.922,242.7c.261-.01.522-.021.781-.04.338-.024.676-.047,1.01-.086.4-.047.8-.114,1.192-.182.325-.056.652-.108.973-.179.392-.086.777-.193,1.161-.3.311-.086.624-.165.928-.264.381-.124.753-.269,1.124-.413.3-.113.594-.218.883-.344.37-.161.728-.345,1.087-.524.274-.137.553-.264.821-.412.362-.2.708-.424,1.057-.643.249-.156.5-.3.747-.466.362-.247.7-.519,1.051-.786.211-.163.431-.312.635-.482.457-.379.891-.783,1.316-1.2.157-.152.31-.307.463-.464.408-.421.808-.85,1.183-1.3.176-.213.333-.442.5-.662.26-.337.525-.67.765-1.022.174-.255.326-.524.49-.785.21-.336.426-.668.618-1.016.155-.281.289-.573.432-.861.172-.346.349-.69.5-1.046.132-.3.242-.614.36-.924.137-.357.277-.713.4-1.079.1-.32.187-.649.277-.975.1-.369.2-.737.287-1.114.074-.335.129-.676.187-1.016.065-.381.13-.761.176-1.148.041-.346.064-.7.09-1.048.018-.251.028-.5.038-.756a22.447,22.447,0,0,0-21.534,21.535" transform="translate(281.994 -4299.001)" fill="#1a428a"/>
    <path id="Trazado_50" data-name="Trazado 50" d="M1490.677,277.386c-.261.01-.522.021-.781.04-.338.024-.676.047-1.01.086-.4.048-.8.115-1.195.183-.324.056-.65.108-.969.178-.4.086-.781.194-1.168.3-.308.085-.618.164-.921.262-.386.125-.76.272-1.137.417-.291.112-.584.216-.869.339-.377.163-.741.35-1.107.534-.267.134-.54.257-.8.4-.373.206-.729.436-1.089.663-.237.149-.483.288-.715.446-.381.26-.742.545-1.105.827-.192.149-.394.285-.581.441-.507.42-.993.865-1.46,1.327-.062.061-.123.122-.184.184-.462.467-.906.952-1.325,1.458-.161.195-.3.4-.459.6-.274.355-.553.706-.806,1.078-.167.246-.314.506-.472.758-.216.345-.437.686-.635,1.043-.152.276-.284.564-.425.847-.175.351-.354.7-.511,1.059-.131.3-.24.61-.358.917-.137.36-.278.717-.4,1.086-.1.319-.187.645-.276.97-.1.371-.205.741-.288,1.119-.073.334-.128.674-.186,1.013-.065.382-.13.763-.176,1.151-.041.346-.064.7-.089,1.048-.018.251-.028.5-.038.756a22.447,22.447,0,0,0,21.535-21.535" transform="translate(249.037 -4331.96)" fill="#1a428a"/>
    <path id="Trazado_51" data-name="Trazado 51" d="M1434.082,241.214q-.321.726-.688,1.426c-.09.171-.175.343-.269.512-.339.61-.7,1.207-1.085,1.783-.042.063-.09.122-.133.184-.352.513-.726,1.009-1.117,1.492-.13.161-.265.318-.4.476q-.509.6-1.056,1.162c-.131.135-.257.273-.391.4-.493.486-1,.954-1.536,1.4-.073.061-.151.115-.226.175q-.7.568-1.445,1.082c-.172.12-.348.235-.524.35q-.662.433-1.352.822c-.162.091-.321.187-.484.275-.614.328-1.242.634-1.886.91-.106.046-.215.082-.322.125q-.821.337-1.672.613c-.206.067-.415.129-.624.191-.517.153-1.041.287-1.572.406-.183.041-.364.088-.549.125-.7.139-1.414.251-2.137.327-.135.014-.273.017-.408.029-.431.038-.861.079-1.3.094a22.419,22.419,0,0,0,21.58,21.6v-36.9c-.05.127-.11.247-.162.373-.079.192-.164.381-.248.571" transform="translate(282 -4310.203)" fill="#d8dfe1"/>
    <path id="Trazado_52" data-name="Trazado 52" d="M1551.285,244.646l9.549,20.273,9.745-20.273h5.729l-12.194,25.366H1557.6l-12-25.366Z" transform="translate(204.214 -4312.769)" fill="#1a428a"/>
    <rect id="Rectángulo_18" data-name="Rectángulo 18" width="5.093" height="25.366" transform="translate(1784.984 -4068.122)" fill="#1a428a"/>
    <path id="Trazado_53" data-name="Trazado 53" d="M1674.915,254.456h11.41v10.675c-1.078,1.126-4.75,4.555-12.634,4.555-9.4,0-15.083-6.513-15.083-13.663,0-6.415,4.995-13.271,15.131-13.271a22.625,22.625,0,0,1,12.1,3.232l-2.987,5.044a15.63,15.63,0,0,0-9.3-3.182c-5.974,0-9.843,3.672-9.843,8.177,0,4.8,3.379,8.57,9.99,8.57a14.309,14.309,0,0,0,7.541-2.35v-3.086h-6.317Z" transform="translate(137.971 -4311.658)" fill="#1a428a"/>
    <rect id="Rectángulo_19" data-name="Rectángulo 19" width="5.093" height="25.366" transform="translate(1831.88 -4068.122)" fill="#1a428a"/>
    <path id="Trazado_54" data-name="Trazado 54" d="M1779.274,244.646h6.758l12.438,25.366h-5.778l-2.546-5.338h-14.838l-2.547,5.338h-5.778Zm-1.469,14.936h9.794l-4.9-9.99Z" transform="translate(74.442 -4312.769)" fill="#1a428a"/>
  </g>
</svg>
